<?xml version="1.0" encoding="utf-8"?>
<!-- Generator: Adobe Illustrator 22.0.1, SVG Export Plug-In . SVG Version: 6.00 Build 0)  -->
<svg version="1.1" id="Capa_1" xmlns="http://www.w3.org/2000/svg" xmlns:xlink="http://www.w3.org/1999/xlink" x="0px" y="0px"
	 viewBox="0 0 512 512" style="enable-background:new 0 0 512 512;" xml:space="preserve">
<style type="text/css">
	.st0{fill:#3A4D57;}
	.st1{fill:#F9F8F7;}
	.st2{fill:#F7F2F3;}
	.st3{fill:#FFFFFF;}
	.st4{fill:#E5395B;}
</style>
<g>
	<g>
		<path class="st0" d="M200.4,420.2h-3.5c-3.3,0-6-2.7-6-6v-52.5c0-3.3,2.7-6,6-6h3.5c3.3,0,6,2.7,6,6v52.5
			C206.4,417.5,203.7,420.2,200.4,420.2z"/>
		<path class="st0" d="M198.6,422.2c-5.3,0-9.7-4.3-9.7-9.7v-49.1c0-5.3,4.3-9.7,9.7-9.7c5.3,0,9.7,4.3,9.7,9.7v49.1
			C208.3,417.8,204,422.2,198.6,422.2z M198.6,357.6c-3.2,0-5.8,2.6-5.8,5.8v49.1c0,3.2,2.6,5.8,5.8,5.8c3.2,0,5.8-2.6,5.8-5.8
			v-49.1C204.4,360.2,201.8,357.6,198.6,357.6z"/>
	</g>
	<g>
		<path class="st0" d="M293.9,457.3L293.9,457.3c-4.1,0-7.4-3.3-7.4-7.4v-46.7c0-4.1,3.3-7.4,7.4-7.4l0,0c4.1,0,7.4,3.3,7.4,7.4
			v46.7C301.2,454,297.9,457.3,293.9,457.3z"/>
		<path class="st0" d="M293.9,459.2c-5.1,0-9.3-4.2-9.3-9.3v-46.7c0-5.1,4.2-9.3,9.3-9.3c5.1,0,9.3,4.2,9.3,9.3v46.7
			C303.1,455,299,459.2,293.9,459.2z M293.9,397.8c-3,0-5.4,2.4-5.4,5.4v46.7c0,3,2.4,5.4,5.4,5.4c3,0,5.4-2.4,5.4-5.4v-46.7
			C299.3,400.3,296.8,397.8,293.9,397.8z"/>
	</g>
	<g>
		<g>
			<path class="st0" d="M198.6,402.4h-19.8c-2.5,0-4.5-2-4.5-4.5v-15.9c0-2.5,2-4.5,4.5-4.5s4.5,2,4.5,4.5v11.4h15.3
				c2.5,0,4.5,2,4.5,4.5C203.2,400.3,201.1,402.4,198.6,402.4z"/>
			<path class="st0" d="M198.6,404.3h-19.8c-3.6,0-6.5-2.9-6.5-6.5v-15.9c0-3.6,2.9-6.5,6.5-6.5c3.6,0,6.5,2.9,6.5,6.5v9.5h13.3
				c3.6,0,6.5,2.9,6.5,6.5C205.1,401.4,202.2,404.3,198.6,404.3z M178.8,379.3c-1.4,0-2.6,1.2-2.6,2.6v15.9c0,1.4,1.2,2.6,2.6,2.6
				h19.8c1.4,0,2.6-1.2,2.6-2.6c0-1.4-1.2-2.6-2.6-2.6h-17.2v-13.3C181.4,380.5,180.3,379.3,178.8,379.3z"/>
		</g>
	</g>
	<g>
		<g>
			<path class="st0" d="M215.4,382.8h-13.6c-2.5,0-4.5-2-4.5-4.5c0-2.5,2-4.5,4.5-4.5h9v-3.9c0-2.5,2-4.5,4.5-4.5s4.5,2,4.5,4.5v8.4
				C219.9,380.8,217.9,382.8,215.4,382.8z"/>
			<path class="st0" d="M215.4,384.7h-13.6c-3.6,0-6.5-2.9-6.5-6.5s2.9-6.5,6.5-6.5h7.1v-1.9c0-3.6,2.9-6.5,6.5-6.5
				c3.6,0,6.5,2.9,6.5,6.5v8.4C221.9,381.8,219,384.7,215.4,384.7z M201.9,375.7c-1.4,0-2.6,1.2-2.6,2.6c0,1.4,1.2,2.6,2.6,2.6h13.6
				c1.4,0,2.6-1.2,2.6-2.6v-8.4c0-1.4-1.2-2.6-2.6-2.6c-1.4,0-2.6,1.2-2.6,2.6v5.8H201.9z"/>
		</g>
	</g>
	<g>
		<g>
			<path class="st0" d="M276.3,421.7h9.7c1.8,0,3.2-1.4,3.2-3.2c0-1.8-1.4-3.2-3.2-3.2h-6.4v-2.8c0-1.8-1.4-3.2-3.2-3.2
				c-1.8,0-3.2,1.4-3.2,3.2v6C273.1,420.3,274.5,421.7,276.3,421.7z"/>
			<path class="st0" d="M285.9,423.7h-9.7c-2.8,0-5.2-2.3-5.2-5.2v-6c0-2.8,2.3-5.2,5.2-5.2c2.8,0,5.2,2.3,5.2,5.2v0.8h4.5
				c2.8,0,5.2,2.3,5.2,5.2C291.1,421.4,288.8,423.7,285.9,423.7z M276.3,411.2c-0.7,0-1.3,0.6-1.3,1.3v6c0,0.7,0.6,1.3,1.3,1.3h9.7
				c0.7,0,1.3-0.6,1.3-1.3c0-0.7-0.6-1.3-1.3-1.3h-8.4v-4.7C277.6,411.8,277,411.2,276.3,411.2z"/>
		</g>
	</g>
	<g>
		<path class="st1" d="M192.8,415c-0.4,0-0.6-0.3-0.6-0.6v-51.8c0-3,2.5-5.5,5.5-5.5h2.1c0.4,0,0.6,0.3,0.6,0.6
			c0,0.4-0.3,0.6-0.6,0.6h-2.1c-2.3,0-4.2,1.9-4.2,4.2v51.8C193.5,414.8,193.2,415,192.8,415z"/>
	</g>
	<g>
		<path class="st1" d="M288.4,453.8c-0.4,0-0.6-0.3-0.6-0.6V404c0-3.6,2.9-6.5,6.5-6.5c0.4,0,0.6,0.3,0.6,0.6c0,0.4-0.3,0.6-0.6,0.6
			c-2.9,0-5.2,2.3-5.2,5.2v49.1C289,453.5,288.7,453.8,288.4,453.8z"/>
	</g>
	<g>
		<path class="st1" d="M175.7,393.8c-0.4,0-0.6-0.3-0.6-0.6v-11.6c0-1.7,1.4-3.1,3.1-3.1c0.4,0,0.6,0.3,0.6,0.6
			c0,0.4-0.3,0.6-0.6,0.6c-1,0-1.8,0.8-1.8,1.8v11.6C176.4,393.5,176.1,393.8,175.7,393.8z"/>
	</g>
	<g>
		<path class="st1" d="M212.4,373.8c-0.4,0-0.6-0.3-0.6-0.6v-3.5c0-1.7,1.4-3.1,3.1-3.1c0.4,0,0.6,0.3,0.6,0.6
			c0,0.4-0.3,0.6-0.6,0.6c-1,0-1.8,0.8-1.8,1.8v3.5C213,373.5,212.7,373.8,212.4,373.8z"/>
	</g>
	<g>
		<path class="st1" d="M274.2,418.4c-0.4,0-0.6-0.3-0.6-0.6v-5.1c0-1.4,1.1-2.6,2.6-2.6c0.4,0,0.6,0.3,0.6,0.6s-0.3,0.6-0.6,0.6
			c-0.7,0-1.3,0.6-1.3,1.3v5.1C274.9,418.1,274.6,418.4,274.2,418.4z"/>
	</g>
</g>
<path class="st2" d="M205.4,250.1c-0.2,0-0.5,0-0.7,0c-3.7-22.4-23.1-39.4-46.6-39.4c-21.2,0-39.1,14-45.1,33.2
	c-3.2-1.1-6.5-1.7-10-1.7c-17.4,0-31.5,14.1-31.5,31.5H229C229,260.7,218.4,250.1,205.4,250.1z"/>
<path class="st2" d="M138.4,356.1c-0.1,0-0.2,0-0.4,0c-1.9-11.2-11.6-19.7-23.3-19.7c-10.6,0-19.6,7-22.6,16.6
	c-1.6-0.5-3.3-0.8-5-0.8c-8.7,0-15.8,7.1-15.8,15.8h78.8C150.2,361.4,144.9,356.1,138.4,356.1z"/>
<polygon class="st3" points="111.5,455.5 124.6,455.5 120.3,446.8 129,438 129,429.2 137.8,424.9 142.2,416.1 133.4,411.7 
	146.5,403 129,394.2 115.9,403 107.1,398.6 98.4,420.5 102.7,429.2 94,438 "/>
<polygon class="st3" points="177.2,455.5 199.1,455.5 194.7,442.4 199.1,438 207.8,433.6 203.5,424.9 211.6,412.2 194.7,407.3 
	181.6,416.1 185.9,429.2 172.8,438 "/>
<polygon class="st3" points="291,420.5 304.2,455.5 317.3,433.6 330.4,429.2 339.2,438 369.8,407.3 361.1,389.8 343.6,394.2 
	304.2,407.3 "/>
<polygon class="st3" points="343.6,394.2 369.8,389.8 396.1,372.3 352.3,376.7 "/>
<rect x="247.2" y="280.4" class="st0" width="17.5" height="175.1"/>
<polygon class="st3" points="285,140.2 227,140.2 185.9,181.3 185.9,239.3 227,280.4 285,280.4 326.1,239.3 326.1,181.3 "/>
<polygon class="st4" points="229.2,275.1 191.3,237.1 191.3,183.5 229.2,145.6 282.8,145.6 320.8,183.5 320.8,237.1 282.8,275.1 "/>
<g>
	<path class="st0" d="M285,284.2h-58c-1,0-2-0.4-2.7-1.1l-41-41c-0.7-0.7-1.1-1.7-1.1-2.7v-58c0-1,0.4-2,1.1-2.7l41-41
		c0.7-0.7,1.7-1.1,2.7-1.1h58c1,0,2,0.4,2.7,1.1l41,41c0.7,0.7,1.1,1.7,1.1,2.7v58c0,1-0.4,2-1.1,2.7l-41,41
		C287,283.8,286,284.2,285,284.2z M228.6,276.5h54.8l38.8-38.8v-54.8l-38.8-38.8h-54.8l-38.8,38.8v54.8L228.6,276.5z"/>
</g>
<g>
	<path class="st0" d="M501.2,459.4H10.8c-2.1,0-3.9-1.7-3.9-3.9c0-2.1,1.7-3.9,3.9-3.9h490.4c2.1,0,3.9,1.7,3.9,3.9
		C505.1,457.6,503.3,459.4,501.2,459.4z"/>
</g>
<g>
	<path class="st0" d="M264.8,459.4h-17.5c-2.1,0-3.9-1.7-3.9-3.9V280.4c0-2.1,1.7-3.9,3.9-3.9h17.5c2.1,0,3.9,1.7,3.9,3.9v175.1
		C268.6,457.6,266.9,459.4,264.8,459.4z M251.1,451.6h9.8V284.2h-9.8V451.6z"/>
</g>
<g>
	<path class="st0" d="M396.1,459.4h-92c-1.6,0-3.1-1-3.6-2.5l-13.1-35c-0.5-1.4-0.2-3,0.9-4.1l13.1-13.1c0.4-0.4,0.9-0.7,1.5-0.9
		l37.9-12.6l8-16.1c0.6-1.2,1.8-2,3.1-2.1l43.8-4.4c1.7-0.2,3.3,0.8,3.9,2.3l13.1,30.7c0.4,0.9,0.4,2,0,3l-8.2,20.6l3.9,11.8
		c0.3,1,0.2,2-0.2,3l-8.8,17.5C398.9,458.6,397.6,459.4,396.1,459.4z M306.8,451.6h86.9l7-13.9l-3.9-11.6c-0.3-0.9-0.3-1.8,0.1-2.7
		l8.2-20.4l-11.4-26.6l-38.8,3.9l-7.8,15.6c-0.5,0.9-1.3,1.6-2.2,1.9l-38.5,12.8l-10.7,10.7L306.8,451.6z"/>
</g>
<g>
	<path class="st0" d="M229.7,459.4h-52.5c-1.8,0-3.3-1.2-3.8-2.9l-4.4-17.5c-0.4-1.6,0.2-3.3,1.6-4.2l10.7-7.1l-3.4-10.3
		c-0.6-1.7,0.1-3.5,1.5-4.4l13.1-8.8c0.9-0.6,2.1-0.8,3.2-0.5l30.7,8.8c1.2,0.3,2.1,1.2,2.5,2.3l8.8,21.9c0.3,0.8,0.4,1.6,0.2,2.4
		l-4.4,17.5C233.1,458.2,231.5,459.4,229.7,459.4z M180.2,451.6h46.5l3.3-13.4l-7.6-19l-27.1-7.7l-9.2,6.1l3.4,10.3
		c0.6,1.7-0.1,3.5-1.5,4.4l-10.9,7.2L180.2,451.6z"/>
</g>
<g>
	<path class="st0" d="M155.3,459.4h-43.8c-1,0-2-0.4-2.7-1.1l-17.5-17.5c-0.7-0.7-1.1-1.7-1.1-2.7c0-1,0.4-2,1.1-2.7l6.8-6.8
		l-3.1-6.3c-0.5-1-0.5-2.1-0.1-3.2l8.8-21.9c0.4-1,1.2-1.8,2.2-2.2c1-0.4,2.1-0.3,3.1,0.2l6.7,3.4l11.3-7.5c1.2-0.8,2.6-0.9,3.9-0.2
		l17.5,8.8c0.4,0.2,0.7,0.4,1,0.7l13.1,13.1c1,1,1.4,2.6,0.9,4l-4,11.9l4,11.9c0.3,0.8,0.3,1.7,0,2.4l-4.4,13.1
		C158.4,458.3,157,459.4,155.3,459.4z M113.1,451.6h39.4l3.1-9.3l-4-11.9c-0.3-0.8-0.3-1.7,0-2.4l3.6-10.9l-11-11l-14.9-7.5
		l-11.3,7.5c-1.2,0.8-2.6,0.9-3.9,0.2l-5-2.5l-6.5,16.4l3.6,7.2c0.7,1.5,0.5,3.3-0.7,4.5l-6,6L113.1,451.6z"/>
</g>
<g>
	<path class="st0" d="M63.3,456.4H44.3c-2.1,0-3.9-1.7-3.9-3.9c0-2.1,1.7-3.9,3.9-3.9h19.1c2.1,0,3.9,1.7,3.9,3.9
		C67.2,454.6,65.5,456.4,63.3,456.4z"/>
</g>
<g>
	<path class="st0" d="M89.1,455.3h-5c-2.1,0-3.9-1.7-3.9-3.9c0-2.1,1.7-3.9,3.9-3.9h5c2.1,0,3.9,1.7,3.9,3.9
		C92.9,453.6,91.2,455.3,89.1,455.3z"/>
</g>
<g>
	<path class="st0" d="M192.2,456.4h-15.8c-2.1,0-3.9-1.7-3.9-3.9c0-2.1,1.7-3.9,3.9-3.9h15.8c2.1,0,3.9,1.7,3.9,3.9
		C196.1,454.6,194.4,456.4,192.2,456.4z"/>
</g>
<g>
	<path class="st0" d="M250.6,453.8h-15.1c-2.1,0-3.9-1.7-3.9-3.9c0-2.1,1.7-3.9,3.9-3.9h15.1c2.1,0,3.9,1.7,3.9,3.9
		C254.5,452.1,252.8,453.8,250.6,453.8z"/>
</g>
<g>
	<path class="st0" d="M293.9,453.8h-11.6c-2.1,0-3.9-1.7-3.9-3.9c0-2.1,1.7-3.9,3.9-3.9h11.6c2.1,0,3.9,1.7,3.9,3.9
		C297.7,452.1,296,453.8,293.9,453.8z"/>
</g>
<g>
	<path class="st0" d="M416.1,456.4h-25c-2.1,0-3.9-1.7-3.9-3.9c0-2.1,1.7-3.9,3.9-3.9h25c2.1,0,3.9,1.7,3.9,3.9
		C420,454.6,418.2,456.4,416.1,456.4z"/>
</g>
<g>
	<path class="st0" d="M364,453.8h-9.9c-2.1,0-3.9-1.7-3.9-3.9c0-2.1,1.7-3.9,3.9-3.9h9.9c2.1,0,3.9,1.7,3.9,3.9
		C367.9,452.1,366.2,453.8,364,453.8z"/>
</g>
<g>
	<path class="st0" d="M435.2,455.3h-5.8c-2.1,0-3.9-1.7-3.9-3.9c0-2.1,1.7-3.9,3.9-3.9h5.8c2.1,0,3.9,1.7,3.9,3.9
		C439.1,453.6,437.4,455.3,435.2,455.3z"/>
</g>
<g>
	<path class="st0" d="M481.7,456.4h-29.2c-2.1,0-3.9-1.7-3.9-3.9c0-2.1,1.7-3.9,3.9-3.9h29.2c2.1,0,3.9,1.7,3.9,3.9
		C485.6,454.6,483.8,456.4,481.7,456.4z"/>
</g>
<path class="st2" d="M474.9,302.3c-0.1,0-0.3,0-0.4,0c-2.1-12.4-12.9-21.9-25.9-21.9c-11.8,0-21.7,7.8-25.1,18.4
	c-1.8-0.6-3.6-0.9-5.6-0.9c-9.7,0-17.5,7.8-17.5,17.5h87.6C488.1,308.1,482.2,302.3,474.9,302.3z"/>
<g>
	<path class="st3" d="M235.9,219.8h-5.2v6.7h-12.8v-6.7h-20.3v-8.4l16.6-24h13.5L213,209.6h5.3v-6h12.4v6h5.2V219.8z"/>
	<path class="st3" d="M237.7,206.9c0-13,7.4-20.5,17.7-20.5s17.7,7.5,17.7,20.5s-7.4,20.5-17.7,20.5S237.7,219.9,237.7,206.9z
		 M259.9,206.9c0-7.5-1.9-9.9-4.5-9.9c-2.6,0-4.5,2.3-4.5,9.9s1.9,9.9,4.5,9.9C258,216.8,259.9,214.5,259.9,206.9z"/>
	<path class="st3" d="M314.4,219.8h-5.2v6.7h-12.8v-6.7h-20.3v-8.4l16.6-24h13.5l-14.8,22.2h5.3v-6h12.4v6h5.2V219.8z"/>
</g>
<path class="st0" d="M355.1,378l-8.3,16.6c-0.5,1-1.3,1.7-2.4,2.1l-41.1,13.7l-11.4,11.4l12.1,32.2h92.6l7.4-14.9l-4.1-12.4
	c-0.3-0.9-0.3-1.9,0.1-2.8l8.7-21.8l-12.1-28.3L355.1,378z"/>
<path class="st0" d="M195,410.6l-9.6,6.4l3.6,10.8c0.6,1.7-0.1,3.6-1.6,4.7l-11.4,7.6l3.1,12.5h48.8l3.5-14l-8-19.9L195,410.6z"/>
<path class="st0" d="M152.8,427.9l3.8-11.4L145.1,405l-15.6-7.8l-11.8,7.9c-1.2,0.8-2.8,0.9-4.1,0.3l-5.2-2.6l-6.9,17.1l3.8,7.5
	c0.8,1.6,0.5,3.4-0.8,4.7l-6.3,6.3l14.3,14.3h41.2l3.2-9.7l-4.2-12.5C152.6,429.6,152.6,428.7,152.8,427.9z"/>
</svg>
