<?xml version="1.0" encoding="utf-8"?>
<!-- Generator: Adobe Illustrator 22.0.1, SVG Export Plug-In . SVG Version: 6.00 Build 0)  -->
<svg version="1.1" id="Capa_1" xmlns="http://www.w3.org/2000/svg" xmlns:xlink="http://www.w3.org/1999/xlink" x="0px" y="0px"
	 viewBox="0 0 512 512" style="enable-background:new 0 0 512 512;" xml:space="preserve">
<style type="text/css">
	.st0{fill:#2C5871;}
	.st1{fill:#E6F1FF;}
	.st2{fill:#CC1F1F;}
</style>
<circle class="st0" cx="256" cy="256" r="256"/>
<circle class="st1" cx="256" cy="256" r="221.1"/>
<g>
	<path class="st0" d="M377.2,142.6c-2,0-4-0.8-5.5-2.3c-3-3-3-7.9,0-10.9l12.4-12.4c3-3,7.9-3,10.9,0c3,3,3,7.9,0,10.9l-12.4,12.4
		C381.1,141.8,379.1,142.6,377.2,142.6z"/>
	<path class="st0" d="M122.4,397.3c-2,0-4-0.8-5.5-2.3c-3-3-3-7.9,0-10.9l12.4-12.4c3-3,7.9-3,10.9,0s3,7.9,0,10.9L127.9,395
		C126.4,396.6,124.4,397.3,122.4,397.3z"/>
	<path class="st0" d="M389.6,397.3c-2,0-4-0.8-5.5-2.3l-12.4-12.4c-3-3-3-7.9,0-10.9c3-3,7.9-3,10.9,0l12.4,12.4c3,3,3,7.9,0,10.9
		C393.5,396.6,391.6,397.3,389.6,397.3z"/>
	<path class="st0" d="M134.8,142.6c-2,0-4-0.8-5.5-2.3L117,127.9c-3-3-3-7.9,0-10.9c3-3,7.9-3,10.9,0l12.4,12.4c3,3,3,7.9,0,10.9
		C138.8,141.8,136.8,142.6,134.8,142.6z"/>
	<path class="st0" d="M114.7,275.6c-0.7,2.1-3.3,3.1-6,3.1c-2.6,0-5.4-1-5.9-3.1l-4.5-19.1l-4.6,19.1c-0.5,2.1-3.3,3.1-5.9,3.1
		c-2.7,0-5.4-1-6-3.1l-14-44.6c-0.1-0.2-0.1-0.6-0.1-0.9c0-2.1,3.3-3.7,5.9-3.7c1.4,0,2.7,0.5,3,1.8l11.2,38.4l6-24.7
		c0.4-1.8,2.5-2.6,4.5-2.6c2,0,4,0.8,4.5,2.6l6,24.7l11.2-38.4c0.4-1.3,1.6-1.8,3-1.8c2.6,0,5.9,1.6,5.9,3.7c0,0.3-0.1,0.6-0.1,0.9
		L114.7,275.6z"/>
	<path class="st0" d="M421,248.7h10.8c1.8,0,2.9,1.8,2.9,3.7c0,1.6-0.9,3.5-2.9,3.5H421v14.2h20.1c1.8,0,2.9,1.9,2.9,4.1
		c0,1.9-0.9,4-2.9,4h-25.2c-2.1,0-4-1-4-2.9v-46c0-1.9,2-2.9,4-2.9h25.2c2,0,2.9,2.1,2.9,4c0,2.2-1.1,4.1-2.9,4.1H421V248.7z"/>
	<path class="st0" d="M263.3,108.4L248,79.9v28.5c0,1.9-2.3,2.9-4.6,2.9c-2.3,0-4.6-1-4.6-2.9v-46c0-2,2.3-2.9,4.6-2.9
		c3.3,0,4.7,0.7,6.9,4.9L264,90.8V62.3c0-2,2.3-2.8,4.6-2.8c2.3,0,4.6,0.8,4.6,2.8v46.1c0,1.9-2.3,2.9-4.6,2.9
		C266.4,111.3,264.5,110.6,263.3,108.4z"/>
	<path class="st0" d="M263.2,431.4c0-10.6-22.7-7.4-22.7-24.2c0-10.6,9.1-14.2,17.2-14.2c4.2,0,13.5,1,13.5,5.7
		c0,1.6-1.1,4.9-3.7,4.9c-2.2,0-3.8-2.7-9.8-2.7c-5.1,0-8,2.1-8,5.5c0,8.8,22.7,5.7,22.7,24.1c0,10.1-7.1,15.4-16.9,15.4
		c-9.3,0-16.4-4.7-16.4-8.8c0-2,1.8-5,4-5c2.9,0,4.8,5.5,12,5.5C259.5,437.6,263.2,435.7,263.2,431.4z"/>
</g>
<g>
	<path class="st2" d="M219.8,282.5l-11.6,0l0,15l-28.6-0.1l0-15l-45.4-0.1l0-18.8l37.2-53.7l30.3,0.1l-33.1,49.5l11.9,0l0-13.4
		l27.8,0.1l0,13.4l11.6,0L219.8,282.5z"/>
	<path class="st2" d="M224,253.7c0.1-29,16.6-45.7,39.7-45.7c23.1,0.1,39.6,16.8,39.5,45.8c-0.1,29-16.6,45.7-39.7,45.7
		C240.4,299.5,223.9,282.7,224,253.7z M273.6,253.8c0-16.9-4.2-22.1-10-22.1c-5.8,0-10,5.2-10,22.1c0,16.9,4.2,22.1,9.9,22.1
		S273.5,270.7,273.6,253.8z"/>
	<path class="st2" d="M395.3,282.9l-11.6,0l0,15l-28.6-0.1l0-15l-45.4-0.1l0-18.8l37.2-53.7l30.3,0.1l-33.1,49.6l11.9,0l0-13.4
		l27.8,0.1l0,13.4l11.6,0L395.3,282.9z"/>
</g>
</svg>
