<svg id="ejswfnbvqol1" xmlns="http://www.w3.org/2000/svg" xmlns:xlink="http://www.w3.org/1999/xlink" viewBox="0 0 750 500" shape-rendering="geometricPrecision" text-rendering="geometricPrecision"><style><![CDATA[#ejswfnbvqol9_to {animation: ejswfnbvqol9_to__to 10000ms linear infinite alternate backwards}@keyframes ejswfnbvqol9_to__to { 0% {transform: translate(588.057171px,210.099748px)} 100% {transform: translate(390.118065px,210.099774px)} }#ejswfnbvqol11_to {animation: ejswfnbvqol11_to__to 10000ms linear infinite alternate backwards}@keyframes ejswfnbvqol11_to__to { 0% {transform: translate(229.650002px,235.732712px);animation-timing-function: cubic-bezier(0.420000,0,0.580000,1)} 100% {transform: translate(331.021476px,235.732718px)} }#ejswfnbvqol13_to {animation: ejswfnbvqol13_to__to 10000ms linear infinite alternate backwards}@keyframes ejswfnbvqol13_to__to { 0% {transform: translate(623.114288px,124.388926px);animation-timing-function: cubic-bezier(0.420000,0,0.580000,1)} 100% {transform: translate(483.706086px,124.388921px)} }#ejswfnbvqol15_to {animation: ejswfnbvqol15_to__to 10000ms linear infinite alternate backwards}@keyframes ejswfnbvqol15_to__to { 0% {transform: translate(375px,148.805277px);animation-timing-function: cubic-bezier(0.420000,0,0.580000,1)} 100% {transform: translate(465.887099px,148.805277px)} }]]></style><defs><radialGradient id="ejswfnbvqol3-fill" cx="0" cy="0" r="520.680300" spreadMethod="pad" gradientUnits="userSpaceOnUse" gradientTransform="matrix(1 0 0 1 332.13479999999998 410.19099999999997)"><stop id="ejswfnbvqol3-fill-0" offset="0%" stop-color="rgb(254,187,157)"/><stop id="ejswfnbvqol3-fill-1" offset="48.510000%" stop-color="rgb(255,121,88)"/><stop id="ejswfnbvqol3-fill-2" offset="61.300000%" stop-color="rgb(240,117,96)"/><stop id="ejswfnbvqol3-fill-3" offset="85.630000%" stop-color="rgb(202,107,118)"/><stop id="ejswfnbvqol3-fill-4" offset="92.790000%" stop-color="rgb(190,104,125)"/></radialGradient></defs><g id="ejswfnbvqol2" display="none"><rect id="ejswfnbvqol3" width="750" height="500" rx="0" ry="0" opacity="0.71" fill="url(#ejswfnbvqol3-fill)" stroke="none" stroke-width="1"/></g><g id="ejswfnbvqol4"><g id="ejswfnbvqol5" display="none"><path id="ejswfnbvqol6" d="M658.700000,351.300000C649.300000,341.100000,635.300000,335.200000,621.400000,335.600000C608.300000,336,593.300000,341,583.300000,332.400000C580.500000,330,578.600000,326.800000,575.600000,324.600000C569.200000,320,560.300000,321.800000,553.100000,324.900000C532.500000,333.700000,516.300000,350.800000,495.900000,360.200000C480.600000,367.300000,463.600000,369.700000,447.200000,373.500000C414.100000,381.200000,382.400000,394.800000,354,413.500000L299.600000,443.200000L668.700000,436.700000" fill="rgb(145,90,127)" stroke="none" stroke-width="1"/></g><g id="ejswfnbvqol7"><g id="ejswfnbvqol8" opacity="0.4"><g id="ejswfnbvqol9_to" transform="translate(588.057171,210.099748)"><path id="ejswfnbvqol9" d="M407.900000,234.900000C415.100000,228.400000,425.500000,225.900000,434.900000,228.300000C437.900000,229.100000,441,230.400000,444,229.900000C446,229.600000,447.800000,228.600000,449.600000,227.800000C457.400000,224.400000,466.800000,224.500000,474.500000,228.100000C473.700000,220.200000,483.400000,213.300000,490.600000,216.700000C488.600000,212.200000,492.500000,206.900000,497.200000,205.700000C501.900000,204.500000,506.900000,206.400000,511.200000,208.600000C514.900000,203.600000,522.400000,202,527.900000,205C529.400000,196.800000,536.200000,189.800000,544.300000,188C552.400000,186.200000,561.500000,189.600000,566.400000,196.400000C570,190.900000,578.600000,189.700000,583.600000,193.900000C585,182.500000,593.800000,172.500000,604.800000,169.100000C615.800000,165.700000,628.400000,168.800000,637,176.500000C645.600000,184.200000,650,196,649.300000,207.500000C664.100000,203.300000,681.200000,214.700000,683.100000,229.900000C690,228.500000,697.400000,229.600000,703.500000,233C704.800000,233.700000,706.200000,234.700000,706.600000,236.100000C707,237.500000,706.200000,239.500000,704.600000,239.400000" transform="translate(-557.300980,-203.566803)" fill="rgb(224,215,215)" stroke="none" stroke-width="1"/></g></g><g id="ejswfnbvqol10" opacity="0.4"><g id="ejswfnbvqol11_to" transform="translate(229.650002,235.732712)"><path id="ejswfnbvqol11" d="M388.500000,259.400000C383.400000,251.700000,373.500000,248.700000,365.600000,252.500000C363.900000,253.300000,362.200000,254.400000,360.400000,254.400000C358.500000,254.300000,356.800000,253,355.100000,251.900000C344.900000,244.900000,331.400000,244.400000,320.800000,250.600000C321.100000,243.300000,317,235.900000,311,233.100000C305,230.300000,297.400000,232.200000,293,237.700000C285.700000,223.600000,272.300000,213.500000,257.800000,212.200000C243.300000,210.900000,228.300000,219.100000,221,233.300000C220.100000,235.100000,219,237.300000,217.100000,237.700000C215.600000,238,214.100000,237,212.800000,236.100000C201.400000,227.300000,190.700000,214.900000,176.800000,214C163.700000,213.200000,151.400000,224.300000,147.500000,238.300000C147,240.100000,146.400000,242.200000,144.900000,243C143.700000,243.600000,142.300000,243.200000,141,242.800000C134.700000,240.800000,128.200000,238.500000,121.600000,239.400000C115.100000,240.300000,108.400000,245.100000,107.200000,252.400000C95.700000,246.700000,81.900000,247.200000,70.800000,253.800000" transform="translate(-229.650002,-235.732712)" fill="rgb(224,215,215)" stroke="none" stroke-width="1"/></g></g><g id="ejswfnbvqol12" opacity="0.4"><g id="ejswfnbvqol13_to" transform="translate(623.114288,124.388926)"><path id="ejswfnbvqol13" d="M420.900000,136.800000C423.400000,134.600000,428.400000,133.700000,432.300000,134.800000C433.200000,135,434,135.400000,434.900000,135.300000C435.900000,135.300000,436.700000,134.900000,437.500000,134.600000C442.600000,132.600000,449.300000,132.400000,454.600000,134.200000C454.400000,132.100000,456.500000,129.900000,459.500000,129.100000C462.500000,128.300000,466.300000,128.800000,468.500000,130.400000C472.200000,126.300000,478.900000,123.400000,486.100000,123C493.300000,122.600000,500.900000,125,504.500000,129.100000C505,129.600000,505.500000,130.200000,506.400000,130.400000C507.200000,130.500000,507.900000,130.200000,508.500000,129.900000C514.200000,127.300000,519.600000,123.800000,526.500000,123.500000C533,123.300000,539.200000,126.500000,541.200000,130.500000C541.500000,131,541.700000,131.600000,542.500000,131.900000C543.100000,132.100000,543.800000,132,544.500000,131.800000C547.700000,131.200000,550.900000,130.600000,554.200000,130.800000C557.500000,131,560.800000,132.400000,561.400000,134.600000C567.100000,132.900000,574.100000,133.100000,579.600000,135" transform="translate(-500.250015,-129.878372)" fill="rgb(224,215,215)" stroke="none" stroke-width="1"/></g></g><g id="ejswfnbvqol14" opacity="0.4"><g id="ejswfnbvqol15_to" transform="translate(375,148.805277)"><path id="ejswfnbvqol15" d="M365.100000,166.300000C358.600000,160.200000,348.900000,157.900000,340.400000,160.400000C339.300000,160.700000,338.200000,161.100000,337.100000,160.800000C335.600000,160.400000,334.700000,158.900000,333.800000,157.600000C331,153.800000,326.100000,151.600000,321.400000,151.900000C316.700000,152.200000,312.200000,155,309.900000,159.100000C304.400000,156.600000,301.400000,150.500000,296.300000,147.100000C292.100000,144.300000,286.500000,143.700000,281.700000,145.600000C277,147.500000,273.300000,151.700000,272.100000,156.700000C267.100000,152.400000,258.600000,153.100000,254.300000,158.100000C248.200000,146.300000,237.400000,137.200000,224.800000,133.100000C216.300000,130.400000,206.200000,130.300000,199.400000,136C194.200000,140.400000,191.900000,147.200000,190.100000,153.700000C184,148,173.300000,148.200000,167.400000,154.100000C165.900000,155.600000,164.600000,157.400000,162.600000,158C159.700000,158.900000,156.800000,156.800000,154,155.400000C147.800000,152.400000,139.800000,153.400000,134.500000,157.900000C133.300000,158.900000,132.300000,160,130.800000,160.500000C128.900000,161.100000,126.900000,160.300000,124.900000,159.800000C118.300000,158.200000,110.900000,160.200000,106,164.900000" transform="translate(-235.550000,-148.805277)" fill="rgb(224,215,215)" stroke="none" stroke-width="1"/></g></g></g></g></svg>