<?xml version="1.0" encoding="utf-8"?>
<!-- Generator: Adobe Illustrator 23.0.0, SVG Export Plug-In . SVG Version: 6.00 Build 0)  -->
<svg version="1.1" id="Layer_1" xmlns="http://www.w3.org/2000/svg" xmlns:xlink="http://www.w3.org/1999/xlink" x="0px" y="0px"
	 viewBox="0 0 64 64" style="enable-background:new 0 0 64 64;" xml:space="preserve">
<style type="text/css">
	.st0{clip-path:url(#SVGID_2_);}
	.st1{fill:#72B8D4;}
	.st2{fill:#DADFEA;}
</style>
<g>
	<defs>
		<polygon id="SVGID_1_" points="21.2,46.8 18,64 42,64 44.8,46.8 		"/>
	</defs>
	<clipPath id="SVGID_2_">
		<use xlink:href="#SVGID_1_"  style="overflow:visible;"/>
	</clipPath>
	<g class="st0">
		<g>
			<g>
				<g>
					<path class="st1" d="M32.3,47.2l0.3,0.8c0,0.2,0.2,0.2,0.4,0.2c0,0,0,0,0,0l0.8-0.4c0.1-0.1,0.3,0,0.4,0.1c0,0.1,0,0.2,0,0.3
						L33.8,49c-0.1,0.1,0,0.3,0.1,0.4c0,0,0,0,0,0l0.8,0.3c0.2,0.1,0.2,0.2,0.2,0.4c0,0.1-0.1,0.1-0.2,0.2L34,50.6
						c-0.2,0-0.2,0.2-0.2,0.4c0,0,0,0,0,0l0.4,0.8c0.1,0.1,0,0.3-0.1,0.4c-0.1,0-0.2,0-0.3,0L33,51.8c-0.1-0.1-0.3,0-0.4,0.1
						c0,0,0,0,0,0l-0.3,0.8C32.2,53,32.1,53,31.9,53c-0.1,0-0.1-0.1-0.2-0.2L31.4,52c0-0.2-0.2-0.2-0.4-0.2c0,0,0,0,0,0l-0.8,0.4
						c-0.1,0.1-0.3,0-0.4-0.1c0-0.1,0-0.2,0-0.3l0.4-0.8c0.1-0.1,0-0.3-0.1-0.4c0,0,0,0,0,0l-0.8-0.3C29,50.2,29,50.1,29,49.9
						c0-0.1,0.1-0.1,0.2-0.2l0.8-0.3c0.2,0,0.2-0.2,0.2-0.4c0,0,0,0,0,0l-0.4-0.8c-0.1-0.1,0-0.3,0.1-0.4c0.1,0,0.2,0,0.3,0l0.8,0.4
						c0.1,0.1,0.3,0,0.4-0.1c0,0,0,0,0,0l0.3-0.8c0.1-0.2,0.2-0.2,0.4-0.2C32.2,47.1,32.3,47.1,32.3,47.2z"/>
					
						<animateTransform  accumulate="none" additive="replace" attributeName="transform" calcMode="linear" dur="9s" fill="remove" repeatCount="indefinite" restart="always" type="rotate" values="0 32 50; 180 32 50; 360 32 50">
						</animateTransform>
				</g>
				
					<animateTransform  accumulate="none" additive="replace" attributeName="transform" calcMode="linear" dur="3s" fill="remove" repeatCount="indefinite" restart="always" type="translate" values="-3 0; 3 0">
					</animateTransform>
			</g>
			
				<animateTransform  accumulate="none" additive="replace" attributeName="transform" calcMode="linear" dur="3s" fill="remove" repeatCount="indefinite" restart="always" type="translate" values="2 -6; -2 12">
				</animateTransform>
			
				<animate  accumulate="none" additive="replace" attributeName="opacity" calcMode="linear" dur="3s" fill="remove" repeatCount="indefinite" restart="always" values="1;1;1;0">
				</animate>
		</g>
		<g>
			<g>
				<g>
					<path class="st1" d="M39.3,47.2l0.3,0.8c0,0.2,0.2,0.2,0.4,0.2c0,0,0,0,0,0l0.8-0.4c0.1-0.1,0.3,0,0.4,0.1c0,0.1,0,0.2,0,0.3
						L40.8,49c-0.1,0.1,0,0.3,0.1,0.4c0,0,0,0,0,0l0.8,0.3c0.2,0.1,0.2,0.2,0.2,0.4c0,0.1-0.1,0.1-0.2,0.2L41,50.6
						c-0.2,0-0.2,0.2-0.2,0.4c0,0,0,0,0,0l0.4,0.8c0.1,0.1,0,0.3-0.1,0.4c-0.1,0-0.2,0-0.3,0L40,51.8c-0.1-0.1-0.3,0-0.4,0.1
						c0,0,0,0,0,0l-0.3,0.8C39.2,53,39.1,53,38.9,53c-0.1,0-0.1-0.1-0.2-0.2L38.4,52c0-0.2-0.2-0.2-0.4-0.2c0,0,0,0,0,0l-0.8,0.4
						c-0.1,0.1-0.3,0-0.4-0.1c0-0.1,0-0.2,0-0.3l0.4-0.8c0.1-0.1,0-0.3-0.1-0.4c0,0,0,0,0,0l-0.8-0.3C36,50.2,36,50.1,36,49.9
						c0-0.1,0.1-0.1,0.2-0.2l0.8-0.3c0.2,0,0.2-0.2,0.2-0.4c0,0,0,0,0,0l-0.4-0.8c-0.1-0.1,0-0.3,0.1-0.4c0.1,0,0.2,0,0.3,0l0.8,0.4
						c0.1,0.1,0.3,0,0.4-0.1c0,0,0,0,0,0l0.3-0.8c0.1-0.2,0.2-0.2,0.4-0.2C39.2,47.1,39.3,47.1,39.3,47.2z"/>
					
						<animateTransform  accumulate="none" additive="replace" attributeName="transform" calcMode="linear" dur="6s" fill="remove" repeatCount="indefinite" restart="always" type="rotate" values="0 39 50; 180 39 50; 360 39 50">
						</animateTransform>
				</g>
				
					<animateTransform  accumulate="none" additive="replace" attributeName="transform" begin="-1s" calcMode="linear" dur="3s" fill="remove" repeatCount="indefinite" restart="always" type="translate" values="0 0; 3 0">
					</animateTransform>
			</g>
			
				<animateTransform  accumulate="none" additive="replace" attributeName="transform" begin="-1s" calcMode="linear" dur="3s" fill="remove" repeatCount="indefinite" restart="always" type="translate" values="2 -6; -2 12">
				</animateTransform>
			
				<animate  accumulate="none" additive="replace" attributeName="opacity" begin="-1s" calcMode="linear" dur="3s" fill="remove" repeatCount="indefinite" restart="always" values="1;1;1;0">
				</animate>
		</g>
		<g>
			<g>
				<g>
					<path class="st1" d="M25.3,47.2l0.3,0.8c0,0.2,0.2,0.2,0.4,0.2c0,0,0,0,0,0l0.8-0.4c0.1-0.1,0.3,0,0.4,0.1c0,0.1,0,0.2,0,0.3
						L26.8,49c-0.1,0.1,0,0.3,0.1,0.4c0,0,0,0,0,0l0.8,0.3c0.2,0.1,0.2,0.2,0.2,0.4c0,0.1-0.1,0.1-0.2,0.2L27,50.6
						c-0.2,0-0.2,0.2-0.2,0.4c0,0,0,0,0,0l0.4,0.8c0.1,0.1,0,0.3-0.1,0.4c-0.1,0-0.2,0-0.3,0L26,51.8c-0.1-0.1-0.3,0-0.4,0.1
						c0,0,0,0,0,0l-0.3,0.8C25.2,53,25.1,53,24.9,53c-0.1,0-0.1-0.1-0.2-0.2L24.4,52c0-0.2-0.2-0.2-0.4-0.2c0,0,0,0,0,0l-0.8,0.4
						c-0.1,0.1-0.3,0-0.4-0.1c0-0.1,0-0.2,0-0.3l0.4-0.8c0.1-0.1,0-0.3-0.1-0.4c0,0,0,0,0,0l-0.8-0.3C22,50.2,22,50.1,22,49.9
						c0-0.1,0.1-0.1,0.2-0.2l0.8-0.3c0.2,0,0.2-0.2,0.2-0.4c0,0,0,0,0,0l-0.4-0.8c-0.1-0.1,0-0.3,0.1-0.4c0.1,0,0.2,0,0.3,0l0.8,0.4
						c0.1,0.1,0.3,0,0.4-0.1c0,0,0,0,0,0l0.3-0.8c0.1-0.2,0.2-0.2,0.4-0.2C25.2,47.1,25.3,47.1,25.3,47.2z"/>
					
						<animateTransform  accumulate="none" additive="replace" attributeName="transform" calcMode="linear" dur="6s" fill="remove" repeatCount="indefinite" restart="always" type="rotate" values="0 25 50; 180 25 50; 360 25 50">
						</animateTransform>
				</g>
				
					<animateTransform  accumulate="none" additive="replace" attributeName="transform" begin="-1.5s" calcMode="linear" dur="3s" fill="remove" repeatCount="indefinite" restart="always" type="translate" values="-3 0; 2 0">
					</animateTransform>
			</g>
			
				<animateTransform  accumulate="none" additive="replace" attributeName="transform" begin="-1.5s" calcMode="linear" dur="3s" fill="remove" repeatCount="indefinite" restart="always" type="translate" values="2 -6; -2 12">
				</animateTransform>
			
				<animate  accumulate="none" additive="replace" attributeName="opacity" begin="-1.5s" calcMode="linear" dur="3s" fill="remove" repeatCount="indefinite" restart="always" values="1;1;1;0">
				</animate>
		</g>
	</g>
</g>
<g>
	<path class="st2" d="M48.2,29.5h-0.4c1.5-6.3-2.3-12.6-8.6-14.1c-4.9-1.2-10,0.9-12.7,5.2c-3.7-2.2-8.5-1-10.7,2.7
		c-0.7,1.2-1.1,2.6-1.1,4c0,0.4,0,0.9,0.1,1.3c-4.5,0.9-7.5,5.3-6.6,9.8c0.8,3.9,4.2,6.7,8.2,6.8c0.2,0,0.4,0,0.6,0l0,0h31.2
		c4.3,0,7.8-3.5,7.8-7.8S52.6,29.5,48.2,29.5z"/>
	
		<animateTransform  accumulate="none" additive="replace" attributeName="transform" calcMode="linear" dur="7s" fill="remove" repeatCount="indefinite" restart="always" type="translate" values="-3 0; 3 0; -3 0">
		</animateTransform>
</g>
</svg>
