<?xml version="1.0" encoding="utf-8"?>
<!-- Generator: Adobe Illustrator 23.0.0, SVG Export Plug-In . SVG Version: 6.00 Build 0)  -->
<svg version="1.1" id="Layer_1" xmlns="http://www.w3.org/2000/svg" xmlns:xlink="http://www.w3.org/1999/xlink" x="0px" y="0px"
	 viewBox="0 0 64 64" style="enable-background:new 0 0 64 64;" xml:space="preserve">
<style type="text/css">
	.st0{clip-path:url(#SVGID_2_);}
	.st1{fill:#72B8D4;}
	.st2{fill:#DADFEA;}
</style>
<g>
	<defs>
		<polygon id="SVGID_1_" points="21.2,46.8 18,64 42,64 44.8,46.8 		"/>
	</defs>
	<clipPath id="SVGID_2_">
		<use xlink:href="#SVGID_1_"  style="overflow:visible;"/>
	</clipPath>
	<g class="st0">
		<g>
			<circle class="st1" cx="32" cy="50" r="1.5"/>
			
				<animateTransform  accumulate="none" additive="replace" attributeName="transform" calcMode="linear" dur="0.6s" fill="remove" repeatCount="indefinite" restart="always" type="translate" values="2 -10; -2 12; -1 9">
				</animateTransform>
			
				<animate  accumulate="none" additive="replace" attributeName="opacity" calcMode="linear" dur="0.6s" fill="remove" repeatCount="indefinite" restart="always" values="1;1;0">
				</animate>
		</g>
		<g>
			<circle class="st1" cx="39" cy="50" r="1.5"/>
			
				<animateTransform  accumulate="none" additive="replace" attributeName="transform" begin="-0.4s" calcMode="linear" dur="0.6s" fill="remove" repeatCount="indefinite" restart="always" type="translate" values="2 -10; -2 12; -1 9">
				</animateTransform>
			
				<animate  accumulate="none" additive="replace" attributeName="opacity" begin="-0.4s" calcMode="linear" dur="0.6s" fill="remove" repeatCount="indefinite" restart="always" values="1;1;0">
				</animate>
		</g>
		<g>
			<circle class="st1" cx="25" cy="50" r="1.5"/>
			
				<animateTransform  accumulate="none" additive="replace" attributeName="transform" begin="-0.2s" calcMode="linear" dur="0.6s" fill="remove" repeatCount="indefinite" restart="always" type="translate" values="2 -10; -2 12; -1 9">
				</animateTransform>
			
				<animate  accumulate="none" additive="replace" attributeName="opacity" begin="-0.2s" calcMode="linear" dur="0.6s" fill="remove" repeatCount="indefinite" restart="always" values="1;1;0">
				</animate>
		</g>
	</g>
</g>
<g>
	<path class="st2" d="M49.2,30.4h-0.4c1.5-6.3-2.3-12.6-8.6-14.1c-4.9-1.2-10,0.9-12.7,5.2c-3.7-2.2-8.5-1-10.7,2.7
		c-0.7,1.2-1.1,2.6-1.1,4c0,0.4,0,0.9,0.1,1.3c-4.5,0.9-7.5,5.3-6.6,9.8c0.8,3.9,4.2,6.7,8.2,6.8c0.2,0,0.4,0,0.6,0l0,0h31.2
		c4.3,0,7.8-3.5,7.8-7.8S53.5,30.4,49.2,30.4z"/>
	
		<animateTransform  accumulate="none" additive="replace" attributeName="transform" calcMode="linear" dur="7s" fill="remove" repeatCount="indefinite" restart="always" type="translate" values="-3 0; 3 0; -3 0">
		</animateTransform>
</g>
</svg>
